<svg xmlns="http://www.w3.org/2000/svg" version="1.1" xmlns:xlink="http://www.w3.org/1999/xlink" width="512" height="512" x="0" y="0" viewBox="0 0 512 512" style="enable-background:new 0 0 512 512" xml:space="preserve" class=""><g><path fill="#4086f4" d="m500.58 196.43-47.02-11.54c-2.22-6.09-4.78-12.19-7.66-18.24l24.49-40.82c3.54-5.9 2.61-13.46-2.26-18.32l-63.64-63.64a14.992 14.992 0 0 0-18.32-2.26L345.35 66.1c-6.05-2.88-12.15-5.44-18.24-7.66l-11.54-47.02A15.008 15.008 0 0 0 301 0h-90c-6.91 0-12.92 4.72-14.57 11.42l-11.54 47.02c-6.09 2.22-12.19 4.78-18.24 7.66l-40.82-24.49a14.993 14.993 0 0 0-18.32 2.26l-63.64 63.64a14.992 14.992 0 0 0-2.26 18.32l24.49 40.82c-2.88 6.05-5.44 12.15-7.66 18.24l-47.02 11.54A15.008 15.008 0 0 0 0 211v90c0 6.91 4.72 12.92 11.42 14.57l47.02 11.54c2.22 6.09 4.78 12.19 7.66 18.24l-24.49 40.82a14.992 14.992 0 0 0 2.26 18.32l63.64 63.64c4.87 4.87 12.42 5.8 18.32 2.26l40.82-24.49c6.05 2.88 12.15 5.44 18.24 7.66L196 498.83l.43 1.75c1.65 6.7 7.66 11.42 14.57 11.42l48-48 42 48c6.91 0 12.92-4.72 14.57-11.42l.43-1.75 11.11-45.27c6.09-2.22 12.19-4.78 18.24-7.66l40.82 24.49c5.9 3.54 13.45 2.61 18.32-2.26l63.64-63.64c4.87-4.86 5.8-12.42 2.26-18.32l-24.49-40.82c2.88-6.05 5.44-12.15 7.66-18.24l47.02-11.54c6.7-1.65 11.42-7.66 11.42-14.57v-90c0-6.91-4.72-12.92-11.42-14.57z" opacity="1" data-original="#4086f4"></path><path fill="#4175df" d="m500.58 196.43-47.02-11.54c-2.22-6.09-4.78-12.19-7.66-18.24l24.49-40.82c3.54-5.9 2.61-13.46-2.26-18.32l-63.64-63.64a14.992 14.992 0 0 0-18.32-2.26L345.35 66.1c-6.05-2.88-12.15-5.44-18.24-7.66l-11.54-47.02A15.008 15.008 0 0 0 301 0h-45v467l3-3 42 48c6.91 0 12.92-4.72 14.57-11.42l.43-1.75 11.11-45.27c6.09-2.22 12.19-4.78 18.24-7.66l40.82 24.49c5.9 3.54 13.45 2.61 18.32-2.26l63.64-63.64c4.87-4.86 5.8-12.42 2.26-18.32l-24.49-40.82c2.88-6.05 5.44-12.15 7.66-18.24l47.02-11.54c6.7-1.65 11.42-7.66 11.42-14.57v-90c0-6.91-4.72-12.92-11.42-14.57z" opacity="1" data-original="#4175df" class=""></path><path fill="#fabe2c" d="M301 352.25h-90c-8.28 0-15 6.71-15 15v131.58l.43 1.75c1.65 6.7 7.66 11.42 14.57 11.42h90c6.91 0 12.92-4.72 14.57-11.42l.43-1.75V367.25c0-8.29-6.72-15-15-15z" opacity="1" data-original="#fabe2c"></path><path fill="#ff9f00" d="M301 352.25h-45V512h45c6.91 0 12.92-4.72 14.57-11.42l.43-1.75V367.25c0-8.29-6.72-15-15-15z" opacity="1" data-original="#ff9f00"></path><path fill="#fdd929" d="M256 391c-74.439 0-135-60.561-135-135 0-27.368 8.182-53.744 23.66-76.275 15.099-21.978 36.088-38.877 60.697-48.868A14.998 14.998 0 0 1 226 144.756v103.217l30 20 30-20V144.755a15 15 0 0 1 20.643-13.899c24.609 9.991 45.599 26.89 60.697 48.868C382.818 202.256 391 228.632 391 256c0 74.439-60.561 135-135 135zm45-135h.01z" opacity="1" data-original="#fdd929"></path><path fill="#fabe2c" d="M391 256c0-27.368-8.182-53.744-23.66-76.275-15.099-21.978-36.088-38.877-60.697-48.868A15 15 0 0 0 286 144.756v103.217l-30 20V391c74.439 0 135-60.561 135-135z" opacity="1" data-original="#fabe2c"></path></g></svg>